<?xml version="1.0" encoding="UTF-8" standalone="no"?>
<svg xmlns="http://www.w3.org/2000/svg" version="1.1">
<path d="M 942,1023 Z" fill="none" stroke="black" stroke-width="1"/>
<path d="M 940,1023 Z" fill="none" stroke="black" stroke-width="1"/>
<path d="M 46,1023 Z" fill="none" stroke="black" stroke-width="1"/>
<path d="M 55,1022 54,1023 Z" fill="none" stroke="black" stroke-width="1"/>
<path d="M 43,1022 42,1023 Z" fill="none" stroke="black" stroke-width="1"/>
<path d="M 46,1021 Z" fill="none" stroke="black" stroke-width="1"/>
<path d="M 2,1021 Z" fill="none" stroke="black" stroke-width="1"/>
<path d="M 0,1021 Z" fill="none" stroke="black" stroke-width="1"/>
<path d="M 44,1020 Z" fill="none" stroke="black" stroke-width="1"/>
<path d="M 32,1020 Z" fill="none" stroke="black" stroke-width="1"/>
<path d="M 49,1019 49,1020 50,1021 49,1020 Z" fill="none" stroke="black" stroke-width="1"/>
<path d="M 47,1019 Z" fill="none" stroke="black" stroke-width="1"/>
<path d="M 34,1019 Z" fill="none" stroke="black" stroke-width="1"/>
<path d="M 943,1018 Z" fill="none" stroke="black" stroke-width="1"/>
<path d="M 36,1018 Z" fill="none" stroke="black" stroke-width="1"/>
<path d="M 923,1017 923,1018 924,1019 924,1022 925,1022 924,1021 925,1020 923,1018 Z" fill="none" stroke="black" stroke-width="1"/>
<path d="M 26,1017 Z" fill="none" stroke="black" stroke-width="1"/>
<path d="M 943,1016 Z" fill="none" stroke="black" stroke-width="1"/>
<path d="M 937,1016 Z" fill="none" stroke="black" stroke-width="1"/>
<path d="M 928,1016 Z" fill="none" stroke="black" stroke-width="1"/>
<path d="M 40,1016 39,1017 Z" fill="none" stroke="black" stroke-width="1"/>
<path d="M 925,1014 924,1015 925,1014 926,1015 Z" fill="none" stroke="black" stroke-width="1"/>
<path d="M 40,1014 Z" fill="none" stroke="black" stroke-width="1"/>
<path d="M 33,1014 Z" fill="none" stroke="black" stroke-width="1"/>
<path d="M 44,1013 43,1014 42,1014 43,1015 43,1014 Z" fill="none" stroke="black" stroke-width="1"/>
<path d="M 39,1011 Z" fill="none" stroke="black" stroke-width="1"/>
<path d="M 34,1011 Z" fill="none" stroke="black" stroke-width="1"/>
<path d="M 933,1009 Z" fill="none" stroke="black" stroke-width="1"/>
<path d="M 930,1009 Z" fill="none" stroke="black" stroke-width="1"/>
<path d="M 34,1009 35,1009 Z" fill="none" stroke="black" stroke-width="1"/>
<path d="M 936,1008 935,1009 Z" fill="none" stroke="black" stroke-width="1"/>
<path d="M 925,1008 924,1009 928,1009 926,1009 Z" fill="none" stroke="black" stroke-width="1"/>
<path d="M 954,1007 Z" fill="none" stroke="black" stroke-width="1"/>
<path d="M 934,1007 Z" fill="none" stroke="black" stroke-width="1"/>
<path d="M 38,1007 39,1008 39,1009 40,1008 42,1008 43,1009 41,1011 41,1012 41,1011 43,1009 44,1009 43,1009 42,1008 42,1007 41,1008 40,1007 39,1008 Z" fill="none" stroke="black" stroke-width="1"/>
<path d="M 937,1006 Z" fill="none" stroke="black" stroke-width="1"/>
<path d="M 12,1006 13,1006 Z" fill="none" stroke="black" stroke-width="1"/>
<path d="M 935,1005 Z" fill="none" stroke="black" stroke-width="1"/>
<path d="M 37,1005 38,1005 Z" fill="none" stroke="black" stroke-width="1"/>
<path d="M 937,1004 Z" fill="none" stroke="black" stroke-width="1"/>
<path d="M 932,1004 933,1005 931,1007 930,1007 931,1007 933,1005 Z" fill="none" stroke="black" stroke-width="1"/>
<path d="M 1,1004 Z" fill="none" stroke="black" stroke-width="1"/>
<path d="M 942,1003 Z" fill="none" stroke="black" stroke-width="1"/>
<path d="M 17,1003 Z" fill="none" stroke="black" stroke-width="1"/>
<path d="M 34,1002 Z" fill="none" stroke="black" stroke-width="1"/>
<path d="M 30,1002 31,1003 32,1002 31,1003 Z" fill="none" stroke="black" stroke-width="1"/>
<path d="M 20,1002 Z" fill="none" stroke="black" stroke-width="1"/>
<path d="M 939,1001 Z" fill="none" stroke="black" stroke-width="1"/>
<path d="M 931,1001 Z" fill="none" stroke="black" stroke-width="1"/>
<path d="M 27,1001 Z" fill="none" stroke="black" stroke-width="1"/>
<path d="M 22,1001 Z" fill="none" stroke="black" stroke-width="1"/>
<path d="M 958,1000 Z" fill="none" stroke="black" stroke-width="1"/>
<path d="M 954,1000 Z" fill="none" stroke="black" stroke-width="1"/>
<path d="M 942,999 Z" fill="none" stroke="black" stroke-width="1"/>
<path d="M 28,998 Z" fill="none" stroke="black" stroke-width="1"/>
<path d="M 25,998 26,998 Z" fill="none" stroke="black" stroke-width="1"/>
<path d="M 18,998 Z" fill="none" stroke="black" stroke-width="1"/>
<path d="M 944,997 Z" fill="none" stroke="black" stroke-width="1"/>
<path d="M 942,997 Z" fill="none" stroke="black" stroke-width="1"/>
<path d="M 959,996 Z" fill="none" stroke="black" stroke-width="1"/>
<path d="M 27,996 Z" fill="none" stroke="black" stroke-width="1"/>
<path d="M 9,996 10,996 Z" fill="none" stroke="black" stroke-width="1"/>
<path d="M 951,995 Z" fill="none" stroke="black" stroke-width="1"/>
<path d="M 23,995 24,995 25,996 24,995 Z" fill="none" stroke="black" stroke-width="1"/>
<path d="M 6,995 Z" fill="none" stroke="black" stroke-width="1"/>
<path d="M 964,994 Z" fill="none" stroke="black" stroke-width="1"/>
<path d="M 941,994 Z" fill="none" stroke="black" stroke-width="1"/>
<path d="M 939,993 939,994 936,997 937,998 938,998 937,997 937,996 938,995 939,995 Z" fill="none" stroke="black" stroke-width="1"/>
<path d="M 24,992 Z" fill="none" stroke="black" stroke-width="1"/>
<path d="M 16,992 Z" fill="none" stroke="black" stroke-width="1"/>
<path d="M 11,992 Z" fill="none" stroke="black" stroke-width="1"/>
<path d="M 944,991 944,992 Z" fill="none" stroke="black" stroke-width="1"/>
<path d="M 964,990 Z" fill="none" stroke="black" stroke-width="1"/>
<path d="M 962,990 Z" fill="none" stroke="black" stroke-width="1"/>
<path d="M 953,990 Z" fill="none" stroke="black" stroke-width="1"/>
<path d="M 948,989 948,990 Z" fill="none" stroke="black" stroke-width="1"/>
<path d="M 958,988 Z" fill="none" stroke="black" stroke-width="1"/>
<path d="M 13,988 Z" fill="none" stroke="black" stroke-width="1"/>
<path d="M 975,987 Z" fill="none" stroke="black" stroke-width="1"/>
<path d="M 954,987 955,988 955,987 Z" fill="none" stroke="black" stroke-width="1"/>
<path d="M 945,987 945,988 Z" fill="none" stroke="black" stroke-width="1"/>
<path d="M 943,987 Z" fill="none" stroke="black" stroke-width="1"/>
<path d="M 11,987 Z" fill="none" stroke="black" stroke-width="1"/>
<path d="M 9,987 Z" fill="none" stroke="black" stroke-width="1"/>
<path d="M 6,986 Z" fill="none" stroke="black" stroke-width="1"/>
<path d="M 947,985 948,986 Z" fill="none" stroke="black" stroke-width="1"/>
<path d="M 1017,984 Z" fill="none" stroke="black" stroke-width="1"/>
<path d="M 4,984 Z" fill="none" stroke="black" stroke-width="1"/>
<path d="M 982,983 Z" fill="none" stroke="black" stroke-width="1"/>
<path d="M 976,983 Z" fill="none" stroke="black" stroke-width="1"/>
<path d="M 970,983 Z" fill="none" stroke="black" stroke-width="1"/>
<path d="M 968,983 Z" fill="none" stroke="black" stroke-width="1"/>
<path d="M 958,983 958,985 Z" fill="none" stroke="black" stroke-width="1"/>
<path d="M 0,983 1,983 Z" fill="none" stroke="black" stroke-width="1"/>
<path d="M 955,980 954,981 954,982 951,985 954,982 955,982 956,983 955,984 955,985 955,984 956,983 956,982 957,981 956,981 Z" fill="none" stroke="black" stroke-width="1"/>
<path d="M 999,979 Z" fill="none" stroke="black" stroke-width="1"/>
<path d="M 966,979 967,980 966,981 965,981 966,981 968,979 967,980 Z" fill="none" stroke="black" stroke-width="1"/>
<path d="M 978,978 Z" fill="none" stroke="black" stroke-width="1"/>
<path d="M 975,978 Z" fill="none" stroke="black" stroke-width="1"/>
<path d="M 1006,977 Z" fill="none" stroke="black" stroke-width="1"/>
<path d="M 982,977 Z" fill="none" stroke="black" stroke-width="1"/>
<path d="M 971,977 Z" fill="none" stroke="black" stroke-width="1"/>
<path d="M 2,976 Z" fill="none" stroke="black" stroke-width="1"/>
<path d="M 990,975 Z" fill="none" stroke="black" stroke-width="1"/>
<path d="M 974,975 Z" fill="none" stroke="black" stroke-width="1"/>
<path d="M 968,975 969,976 Z" fill="none" stroke="black" stroke-width="1"/>
<path d="M 966,975 965,976 966,977 965,976 Z" fill="none" stroke="black" stroke-width="1"/>
<path d="M 986,974 Z" fill="none" stroke="black" stroke-width="1"/>
<path d="M 975,972 974,973 Z" fill="none" stroke="black" stroke-width="1"/>
<path d="M 972,972 971,973 972,973 Z" fill="none" stroke="black" stroke-width="1"/>
<path d="M 969,972 968,973 969,973 Z" fill="none" stroke="black" stroke-width="1"/>
<path d="M 1010,971 Z" fill="none" stroke="black" stroke-width="1"/>
<path d="M 963,971 Z" fill="none" stroke="black" stroke-width="1"/>
<path d="M 992,970 Z" fill="none" stroke="black" stroke-width="1"/>
<path d="M 974,970 975,970 Z" fill="none" stroke="black" stroke-width="1"/>
<path d="M 987,969 Z" fill="none" stroke="black" stroke-width="1"/>
<path d="M 998,967 999,968 Z" fill="none" stroke="black" stroke-width="1"/>
<path d="M 988,966 989,966 Z" fill="none" stroke="black" stroke-width="1"/>
<path d="M 997,965 996,966 Z" fill="none" stroke="black" stroke-width="1"/>
<path d="M 1019,963 Z" fill="none" stroke="black" stroke-width="1"/>
<path d="M 1006,963 Z" fill="none" stroke="black" stroke-width="1"/>
<path d="M 1015,961 Z" fill="none" stroke="black" stroke-width="1"/>
<path d="M 995,961 Z" fill="none" stroke="black" stroke-width="1"/>
<path d="M 1014,959 Z" fill="none" stroke="black" stroke-width="1"/>
<path d="M 1009,958 1008,959 Z" fill="none" stroke="black" stroke-width="1"/>
<path d="M 1004,958 Z" fill="none" stroke="black" stroke-width="1"/>
<path d="M 1000,958 Z" fill="none" stroke="black" stroke-width="1"/>
<path d="M 998,958 Z" fill="none" stroke="black" stroke-width="1"/>
<path d="M 1010,956 Z" fill="none" stroke="black" stroke-width="1"/>
<path d="M 1022,955 Z" fill="none" stroke="black" stroke-width="1"/>
<path d="M 1016,952 Z" fill="none" stroke="black" stroke-width="1"/>
<path d="M 1009,952 1009,953 1007,955 1006,954 1007,955 1010,952 1012,954 1010,952 Z" fill="none" stroke="black" stroke-width="1"/>
<path d="M 1022,949 Z" fill="none" stroke="black" stroke-width="1"/>
<path d="M 1001,949 1002,950 Z" fill="none" stroke="black" stroke-width="1"/>
<path d="M 1020,948 1020,949 Z" fill="none" stroke="black" stroke-width="1"/>
<path d="M 1023,946 Z" fill="none" stroke="black" stroke-width="1"/>
<path d="M 1019,945 Z" fill="none" stroke="black" stroke-width="1"/>
<path d="M 1023,944 Z" fill="none" stroke="black" stroke-width="1"/>
<path d="M 1017,944 Z" fill="none" stroke="black" stroke-width="1"/>
<path d="M 1012,944 1014,946 1014,947 1015,947 Z" fill="none" stroke="black" stroke-width="1"/>
<path d="M 1019,940 1020,941 1021,941 1020,941 Z" fill="none" stroke="black" stroke-width="1"/>
<path d="M 2,22 Z" fill="none" stroke="black" stroke-width="1"/>
<path d="M 0,22 Z" fill="none" stroke="black" stroke-width="1"/>
<path d="M 1,20 Z" fill="none" stroke="black" stroke-width="1"/>
<path d="M 0,17 Z" fill="none" stroke="black" stroke-width="1"/>
<path d="M 0,15 Z" fill="none" stroke="black" stroke-width="1"/>
<path d="M 3,9 Z" fill="none" stroke="black" stroke-width="1"/>
<path d="M 7,8 Z" fill="none" stroke="black" stroke-width="1"/>
<path d="M 5,8 Z" fill="none" stroke="black" stroke-width="1"/>
<path d="M 12,6 Z" fill="none" stroke="black" stroke-width="1"/>
<path d="M 5,6 Z" fill="none" stroke="black" stroke-width="1"/>
<path d="M 14,5 Z" fill="none" stroke="black" stroke-width="1"/>
<path d="M 0,5 Z" fill="none" stroke="black" stroke-width="1"/>
<path d="M 3,4 3,6 Z" fill="none" stroke="black" stroke-width="1"/>
<path d="M 6,3 Z" fill="none" stroke="black" stroke-width="1"/>
<path d="M 14,2 Z" fill="none" stroke="black" stroke-width="1"/>
<path d="M 9,2 10,3 9,4 10,4 10,3 Z" fill="none" stroke="black" stroke-width="1"/>
<path d="M 2,1 3,2 Z" fill="none" stroke="black" stroke-width="1"/>
<path d="M 17,0 17,1 18,1 19,2 18,3 16,3 18,3 19,4 18,5 16,5 16,6 17,6 18,5 19,5 20,6 20,7 19,8 18,8 17,9 16,8 17,9 16,10 15,10 14,9 14,10 15,11 15,12 14,13 13,12 11,14 9,14 7,12 7,11 8,10 10,12 10,11 12,9 12,8 11,9 10,8 10,10 9,11 8,10 7,11 7,12 8,13 8,15 7,16 8,17 8,18 7,19 4,16 6,14 5,13 5,12 4,11 3,12 2,11 3,12 2,13 1,13 0,12 0,11 0,13 2,13 4,11 5,12 5,13 6,14 5,15 2,15 3,15 4,16 4,17 3,18 2,17 3,18 4,18 5,17 7,19 6,20 6,21 5,22 4,22 4,23 3,24 0,24 1,24 3,26 3,27 2,28 0,26 1,27 0,28 0,41 1,42 0,43 0,977 0,974 1,973 3,973 4,974 4,972 5,971 6,972 6,975 7,975 8,976 7,977 5,977 4,976 5,977 4,978 5,979 5,980 4,981 2,979 1,979 1,980 0,981 1,981 1,980 2,979 4,981 5,980 6,981 7,981 8,982 7,983 6,983 7,983 8,984 9,984 10,985 12,985 13,984 14,985 14,986 15,987 15,989 16,989 17,990 16,989 17,988 17,987 18,986 20,988 20,990 21,990 22,991 22,992 22,991 21,990 21,989 20,988 21,987 22,987 24,989 24,990 25,990 26,991 26,990 27,989 29,991 27,993 28,992 30,992 31,993 29,995 30,996 30,999 31,1000 30,999 30,997 31,996 31,995 30,994 33,991 34,991 35,992 35,994 34,995 33,994 34,995 33,996 35,996 36,997 37,996 38,997 38,998 39,997 40,998 40,1000 39,1001 38,1000 36,1000 35,999 36,1000 38,1000 39,1001 39,1003 40,1002 41,1002 43,1004 42,1005 43,1004 44,1005 44,1007 46,1007 47,1008 47,1009 46,1010 48,1010 47,1009 48,1008 49,1008 50,1009 50,1010 52,1012 52,1014 51,1015 50,1014 51,1015 52,1014 52,1013 53,1012 55,1014 55,1015 56,1016 56,1018 55,1019 53,1017 49,1017 48,1016 47,1016 46,1015 47,1014 48,1014 47,1014 46,1015 47,1016 45,1018 47,1016 48,1016 49,1017 50,1017 51,1018 51,1019 52,1018 54,1020 53,1021 52,1021 53,1021 54,1020 57,1020 57,1019 59,1017 60,1018 61,1018 62,1019 61,1020 59,1020 59,1022 58,1023 59,1022 60,1023 62,1023 63,1022 64,1023 65,1022 66,1023 66,1022 67,1021 68,1022 68,1023 899,1023 900,1022 901,1023 903,1023 904,1022 905,1022 906,1023 907,1022 908,1023 909,1022 910,1023 910,1022 911,1021 912,1022 913,1021 914,1022 913,1021 913,1020 914,1019 915,1019 916,1020 917,1020 918,1019 919,1019 920,1020 918,1022 916,1022 916,1023 917,1022 918,1022 920,1020 919,1019 919,1018 920,1017 921,1017 920,1017 917,1020 916,1020 914,1018 915,1017 913,1019 913,1021 912,1022 911,1021 911,1020 910,1019 910,1018 912,1016 912,1015 913,1014 914,1015 914,1014 915,1013 916,1014 916,1015 917,1014 918,1014 917,1013 918,1012 920,1012 921,1013 921,1014 920,1015 923,1012 922,1011 921,1011 920,1012 919,1012 918,1011 918,1010 918,1011 916,1013 915,1013 914,1014 913,1013 913,1012 914,1011 915,1011 915,1010 919,1006 919,1005 920,1004 921,1004 922,1005 922,1006 920,1008 921,1007 922,1008 924,1006 926,1006 926,1005 925,1006 924,1005 924,1004 923,1003 922,1003 921,1002 922,1001 923,1001 921,1001 920,1000 921,999 922,999 923,998 926,1001 926,1002 927,1003 928,1003 929,1004 928,1005 928,1006 928,1005 929,1004 930,1004 929,1004 928,1003 929,1002 927,1002 925,1000 927,998 928,999 927,998 928,997 929,997 930,998 930,999 930,998 931,997 932,998 932,999 933,999 934,1000 934,997 933,998 932,998 930,996 931,995 931,993 932,992 933,992 934,993 934,994 933,995 934,994 935,995 937,993 936,992 937,991 938,991 939,990 940,990 941,991 942,991 942,990 943,989 942,989 941,988 941,986 940,986 939,985 939,984 940,983 941,984 942,983 944,985 946,983 948,983 949,984 949,983 950,982 951,982 952,981 951,980 951,979 953,977 952,976 954,974 955,975 956,975 957,976 957,977 956,978 955,977 956,978 957,978 958,979 959,979 959,978 960,977 961,978 962,977 963,978 961,976 963,974 961,974 962,975 961,976 959,976 958,975 959,974 958,973 958,972 959,971 960,972 961,972 960,972 959,971 959,970 960,969 961,970 962,969 964,969 964,968 966,966 967,966 969,968 968,969 967,969 967,970 966,971 969,968 970,968 971,969 970,968 971,967 970,966 971,965 974,965 975,964 977,966 977,967 976,968 975,967 973,967 974,967 975,968 976,968 977,967 978,967 979,968 979,969 980,969 977,966 977,965 978,964 980,966 980,965 979,965 978,964 979,963 979,962 980,961 981,962 981,963 982,962 982,961 983,960 984,960 985,961 984,962 984,964 983,965 982,965 983,965 984,966 983,967 982,967 982,968 984,966 985,967 986,966 984,964 985,963 984,962 985,961 984,960 984,959 985,958 986,959 989,959 990,960 991,959 992,960 993,960 992,959 993,958 993,956 994,955 995,956 995,957 996,958 996,957 995,956 995,955 993,955 993,958 992,959 990,959 989,958 990,957 991,957 991,954 992,953 992,952 993,951 994,952 995,951 996,951 997,952 998,952 999,953 998,954 998,955 999,954 1000,955 1001,955 1002,956 1002,955 1001,955 999,953 999,950 998,949 998,948 1000,946 1001,946 1000,945 1001,944 1000,944 999,945 998,944 998,943 999,942 1002,942 1003,943 1003,945 1003,944 1004,943 1005,944 1005,945 1006,946 1006,947 1007,948 1006,949 1005,949 1003,947 1004,948 1004,951 1003,952 1003,953 1003,952 1004,951 1006,951 1005,950 1007,948 1008,949 1008,950 1008,949 1007,948 1008,947 1009,947 1007,947 1006,946 1006,945 1007,944 1008,945 1010,945 1012,947 1012,948 1010,950 1011,949 1012,949 1013,950 1012,951 1014,953 1012,951 1014,949 1015,950 1016,950 1016,949 1015,950 1014,949 1013,950 1012,949 1012,947 1010,945 1010,944 1007,944 1006,945 1005,944 1005,942 1006,941 1007,942 1006,941 1008,939 1009,940 1009,939 1010,938 1011,939 1011,941 1010,942 1009,942 1010,942 1011,941 1012,942 1013,942 1015,944 1015,943 1016,942 1015,942 1014,941 1016,939 1016,938 1018,936 1019,937 1018,936 1018,935 1019,934 1021,936 1022,936 1023,937 1023,938 1023,935 1022,935 1021,934 1022,933 1023,933 1023,932 1022,931 1023,930 1023,924 1022,923 1023,922 1023,0 45,0 44,1 43,0 35,0 34,1 33,0 31,0 30,1 30,2 31,3 30,4 28,4 27,3 27,1 28,0 27,1 26,0 23,0 22,1 21,0 20,0 19,1 18,1 Z" fill="none" stroke="black" stroke-width="1"/>
<path d="M 11,0 11,1 12,2 12,1 Z" fill="none" stroke="black" stroke-width="1"/>
<path d="M 8,0 Z" fill="none" stroke="black" stroke-width="1"/>
<path d="M 5,0 Z" fill="none" stroke="black" stroke-width="1"/>
<path d="M 0,0 Z" fill="none" stroke="black" stroke-width="1"/>
</svg>